<svg width="320" height="320" viewBox="0 0 320 320" fill="none" xmlns="http://www.w3.org/2000/svg">
  <rect width="320" height="320" rx="34" fill="#F7FBF8"/>
  <circle cx="160" cy="152" r="96" fill="#E2F2EE"/>
  <path d="M75 166C81 223 114 260 160 260C206 260 239 223 245 166H75Z" fill="#FFFFFF" stroke="#16221F" stroke-width="10" stroke-linejoin="round"/>
  <path d="M82 166C96 190 124 204 160 204C196 204 224 190 238 166" stroke="#D9DFDA" stroke-width="8" stroke-linecap="round"/>
  <circle cx="119" cy="130" r="34" fill="#0F7D68"/>
  <circle cx="183" cy="118" r="38" fill="#C8543F"/>
  <circle cx="167" cy="165" r="32" fill="#F1C65B"/>
  <path d="M102 132C114 118 129 113 146 118" stroke="#FFFFFF" stroke-width="8" stroke-linecap="round"/>
  <path d="M171 102C189 105 202 115 208 133" stroke="#FFFFFF" stroke-width="8" stroke-linecap="round"/>
  <path d="M146 170C159 158 175 155 192 161" stroke="#FFFFFF" stroke-width="8" stroke-linecap="round"/>
  <path d="M101 270H219" stroke="#16221F" stroke-width="10" stroke-linecap="round"/>
</svg>
